{
  "source": "C:\\Users\\Peter\\Desktop\\stuff\\MIUN\\quantitative_research\\video_compression\\videos\\BVI-HD\\BVI-HD_CDVL_videos\\ORIG\\Rowing_1920x1080_30fps.mp4",
  "output": "C:\\Users\\Peter\\Desktop\\stuff\\MIUN\\quantitative_research\\video_compression\\compressed_videos\\BVI-HD\\av1\\4\\Rowing_1920x1080_30fps_av1.mkv",
  "codec": "av1",
  "ok": "Input #0, mov,mp4,m4a,3gp,3g2,mj2, from 'C:\\Users\\Peter\\Desktop\\stuff\\MIUN\\quantitative_research\\video_compression\\videos\\BVI-HD\\BVI-HD_CDVL_videos\\ORIG\\Rowing_1920x1080_30fps.mp4':\n  Metadata:\n    major_brand     : isom\n    minor_version   : 512\n    compatible_brands: isomiso2avc1mp41\n    encoder         : Lavf54.28.101\n  Duration: 00:00:05.00, start: 0.000000, bitrate: 259220 kb/s\n  Stream #0:0[0x1](und): Video: h264 (High 4:4:4 Predictive) (avc1 / 0x31637661), yuv420p(progressive), 1920x1080, 259216 kb/s, 30 fps, 30 tbr, 30 tbn (default)\n    Metadata:\n      handler_name    : VideoHandler\n      vendor_id       : [0][0][0][0]\n[out#0/matroska @ 00000235c320f040] Codec AVOption b:a (set bitrate (in bits/s)) has not been used for any stream. The most likely reason is either wrong type (e.g. a video option with no video streams) or that it is a private option of some decoder which was not actually used for any stream.\nStream mapping:\n  Stream #0:0 -> #0:0 (h264 (native) -> av1 (libsvtav1))\nPress [q] to stop, [?] for help\nSvt[info]: -------------------------------------------\nSvt[info]: SVT [version]:\tSVT-AV1 Encoder Lib v3.1.0-19-g6ecfe8ec\nSvt[info]: SVT [build]  :\tGCC 15.2.0\t 64 bit\nSvt[info]: LIB Build date: Aug 17 2025 11:37:13\nSvt[info]: -------------------------------------------\nSvt[info]: Level of Parallelism: 5\nSvt[info]: Number of PPCS 93\nSvt[info]: [asm level on system : up to avx2]\nSvt[info]: [asm level selected : up to avx2]\nSvt[info]: -------------------------------------------\nSvt[info]: SVT [config]: main profile\ttier (auto)\tlevel (auto)\nSvt[info]: SVT [config]: width / height / fps numerator / fps denominator \t\t: 1920 / 1080 / 30 / 1\nSvt[info]: SVT [config]: bit-depth / color format \t\t\t\t\t: 8 / YUV420\nSvt[info]: SVT [config]: preset / tune / pred struct \t\t\t\t\t: 4 / PSNR / random access\nSvt[info]: SVT [config]: gop size / mini-gop size / key-frame type \t\t\t: 161 / 16 / key frame\nSvt[info]: SVT [config]: BRC mode / target bitrate (kbps)\t\t\t\t: VBR / 4000 \nSvt[info]: SVT [config]: AQ mode / Variance Boost \t\t\t\t\t: 2 / 0\nSvt[info]: SVT [config]: sharpness / luminance-based QP bias \t\t\t\t: 0 / 0\nSvt[info]: SVT [config]: QP scale compress strength \t\t\t\t\t: 0\nSvt[info]: -------------------------------------------\nOutput #0, matroska, to 'C:\\Users\\Peter\\Desktop\\stuff\\MIUN\\quantitative_research\\video_compression\\compressed_videos\\BVI-HD\\av1\\4\\Rowing_1920x1080_30fps_av1.mkv':\n  Metadata:\n    major_brand     : isom\n    minor_version   : 512\n    compatible_brands: isomiso2avc1mp41\n    encoder         : Lavf62.3.100\n  Stream #0:0(und): Video: av1 (AV01 / 0x31305641), yuv420p(tv, progressive), 1920x1080, q=2-31, 4000 kb/s, 30 fps, 1k tbn (default)\n    Metadata:\n      encoder         : Lavc62.11.100 libsvtav1\n      handler_name    : VideoHandler\n      vendor_id       : [0][0][0][0]\n    Side data:\n      cpb: bitrate max/min/avg: 0/0/4000000 buffer size: 4000000 vbv_delay: N/A\nframe=    0 fps=0.0 q=0.0 size=       0KiB time=N/A bitrate=N/A speed=N/A elapsed=0:00:01.02    \nframe=    0 fps=0.0 q=0.0 size=       0KiB time=N/A bitrate=N/A speed=N/A elapsed=0:00:01.55    \nframe=    0 fps=0.0 q=0.0 size=       0KiB time=N/A bitrate=N/A speed=N/A elapsed=0:00:02.11    \nframe=    0 fps=0.0 q=0.0 size=       0KiB time=N/A bitrate=N/A speed=N/A elapsed=0:00:02.64    \nframe=    1 fps=0.3 q=40.0 size=       1KiB time=00:00:00.00 bitrate=N/A speed=   0x elapsed=0:00:03.20    \nframe=    1 fps=0.3 q=40.0 size=       1KiB time=00:00:00.00 bitrate=N/A speed=   0x elapsed=0:00:03.72    \nframe=    3 fps=0.7 q=49.0 size=       1KiB time=00:00:00.06 bitrate=  85.6kbits/s speed=0.0157x elapsed=0:00:04.24    \nframe=    6 fps=1.3 q=49.0 size=       1KiB time=00:00:00.16 bitrate=  34.2kbits/s speed=0.0349x elapsed=0:00:04.77    \nframe=    9 fps=1.7 q=46.0 size=       1KiB time=00:00:00.26 bitrate=  21.4kbits/s speed=0.0503x elapsed=0:00:05.30    \nframe=   13 fps=2.2 q=46.0 size=       1KiB time=00:00:00.40 bitrate=  14.3kbits/s speed=0.0687x elapsed=0:00:05.82    \nframe=   19 fps=3.0 q=50.0 size=       1KiB time=00:00:00.60 bitrate=   9.5kbits/s speed=0.0946x elapsed=0:00:06.34    \nframe=   22 fps=3.2 q=50.0 size=       1KiB time=00:00:00.70 bitrate=   8.1kbits/s speed=0.102x elapsed=0:00:06.85    \nframe=   25 fps=3.4 q=47.0 size=       1KiB time=00:00:00.80 bitrate=   7.1kbits/s speed=0.108x elapsed=0:00:07.39    \nframe=   29 fps=3.7 q=46.0 size=       1KiB time=00:00:00.93 bitrate=   6.1kbits/s speed=0.118x elapsed=0:00:07.93    \nframe=   33 fps=3.9 q=43.0 size=       1KiB time=00:00:01.06 bitrate=   5.3kbits/s speed=0.126x elapsed=0:00:08.48    \nframe=   36 fps=4.0 q=52.0 size=       1KiB time=00:00:01.16 bitrate=   4.9kbits/s speed=0.13x elapsed=0:00:09.00    \nframe=   38 fps=4.0 q=52.0 size=       1KiB time=00:00:01.23 bitrate=   4.6kbits/s speed=0.129x elapsed=0:00:09.55    \nframe=   41 fps=4.0 q=46.0 size=       1KiB time=00:00:01.33 bitrate=   4.3kbits/s speed=0.131x elapsed=0:00:10.14    \nframe=   44 fps=4.1 q=54.0 size=       1KiB time=00:00:01.43 bitrate=   4.0kbits/s speed=0.133x elapsed=0:00:10.74    \nframe=   49 fps=4.3 q=42.0 size=       1KiB time=00:00:01.60 bitrate=   3.6kbits/s speed=0.142x elapsed=0:00:11.27    \nframe=   55 fps=4.7 q=52.0 size=       1KiB time=00:00:01.80 bitrate=   3.2kbits/s speed=0.153x elapsed=0:00:11.80    \nframe=   57 fps=4.6 q=48.0 size=       1KiB time=00:00:01.86 bitrate=   3.1kbits/s speed=0.151x elapsed=0:00:12.35    \nframe=   59 fps=4.6 q=52.0 size=       1KiB time=00:00:01.93 bitrate=   3.0kbits/s speed=0.149x elapsed=0:00:12.96    \nframe=   61 fps=4.5 q=50.0 size=       1KiB time=00:00:02.00 bitrate=   2.9kbits/s speed=0.148x elapsed=0:00:13.50    \nframe=   65 fps=4.6 q=43.0 size=       1KiB time=00:00:02.13 bitrate=   2.7kbits/s speed=0.151x elapsed=0:00:14.10    \nframe=   69 fps=4.7 q=50.0 size=       1KiB time=00:00:02.26 bitrate=   2.5kbits/s speed=0.154x elapsed=0:00:14.71    \nframe=   73 fps=4.8 q=50.0 size=       1KiB time=00:00:02.33 bitrate=   2.4kbits/s speed=0.153x elapsed=0:00:15.28    \nframe=   73 fps=4.6 q=50.0 size=       1KiB time=00:00:02.40 bitrate=   2.4kbits/s speed=0.151x elapsed=0:00:15.88    \nframe=   75 fps=4.6 q=52.0 size=       1KiB time=00:00:02.46 bitrate=   2.3kbits/s speed=0.15x elapsed=0:00:16.43    \nframe=   79 fps=4.6 q=52.0 size=       1KiB time=00:00:02.53 bitrate=   2.3kbits/s speed=0.149x elapsed=0:00:17.00    \nframe=   81 fps=4.6 q=46.0 size=       1KiB time=00:00:02.66 bitrate=   2.1kbits/s speed=0.152x elapsed=0:00:17.56    \nframe=   85 fps=4.7 q=49.0 size=       1KiB time=00:00:02.80 bitrate=   2.0kbits/s speed=0.155x elapsed=0:00:18.11    \nframe=   89 fps=4.8 q=50.0 size=       1KiB time=00:00:02.93 bitrate=   1.9kbits/s speed=0.157x elapsed=0:00:18.67    \nframe=   91 fps=4.7 q=51.0 size=       1KiB time=00:00:03.00 bitrate=   1.9kbits/s speed=0.156x elapsed=0:00:19.23    \nframe=   93 fps=4.7 q=49.0 size=       1KiB time=00:00:03.06 bitrate=   1.9kbits/s speed=0.155x elapsed=0:00:19.79    \nframe=   97 fps=4.8 q=45.0 size=       1KiB time=00:00:03.20 bitrate=   1.8kbits/s speed=0.157x elapsed=0:00:20.35    \nframe=  103 fps=4.9 q=51.0 size=       1KiB time=00:00:03.40 bitrate=   1.7kbits/s speed=0.163x elapsed=0:00:20.87    \nframe=  105 fps=4.9 q=49.0 size=       1KiB time=00:00:03.46 bitrate=   1.6kbits/s speed=0.162x elapsed=0:00:21.39    \nframe=  109 fps=5.0 q=49.0 size=       1KiB time=00:00:03.60 bitrate=   1.6kbits/s speed=0.164x elapsed=0:00:21.91    \nframe=  113 fps=5.0 q=45.0 size=       1KiB time=00:00:03.73 bitrate=   1.5kbits/s speed=0.166x elapsed=0:00:22.43    \nframe=  121 fps=5.3 q=49.0 size=       1KiB time=00:00:04.00 bitrate=   1.4kbits/s speed=0.174x elapsed=0:00:22.95    \nframe=  123 fps=5.2 q=52.0 size=       1KiB time=00:00:04.06 bitrate=   1.4kbits/s speed=0.173x elapsed=0:00:23.46    \nframe=  129 fps=5.4 q=45.0 size=       1KiB time=00:00:04.26 bitrate=   1.3kbits/s speed=0.178x elapsed=0:00:23.99    \nframe=  133 fps=5.4 q=53.0 size=       1KiB time=00:00:04.40 bitrate=   1.3kbits/s speed=0.18x elapsed=0:00:24.51    \nframe=  137 fps=5.5 q=51.0 size=       1KiB time=00:00:04.53 bitrate=   1.3kbits/s speed=0.181x elapsed=0:00:25.03    \n[out#0/matroska @ 00000235c320f040] video:2699KiB audio:0KiB subtitle:0KiB other streams:0KiB global headers:0KiB muxing overhead: 0.053657%\nframe=  150 fps=5.9 q=53.0 Lsize=    2701KiB time=00:00:04.96 bitrate=4454.2kbits/s speed=0.195x elapsed=0:00:25.53    \n",
  "seconds": 25.97650933265686,
  "probe_out": {}
}